# xmcd
#
# Track frame offsets: 
#        150
#        15183
#        31111
#        44862
#        60327
#        73794
#        87149
#        97836
#        110343
#        123304
#        136791
#        152510
#        165113
#        176097
#        190914
#        205306
#        217551
#        231141
#
# Disc length: 3247 seconds
#
# Revision: 0
# Processed by: cddbd v1.5.1PL0 Copyright (c) Steve Scherf et al.
# Submitted via: ExactAudioCopy v0.95a5
#
DISCID=d70cad12
DTITLE=Various Artist - Reefer Madness
DYEAR=2004
DGENRE=Blues
TTITLE0=Victoria Spivey - Dope Head Blues
TTITLE1=Don Redman - Reefer Man
TTITLE2=Ella Fitzgerald (with Chick Webb) - Wacky Dust
TTITLE3=Cab Calloway - Kickin' The Gong Around
TTITLE4=Lil Green - Knockin' Myself Out
TTITLE5=Barney Bigard - Sweet Marijuana Brown
TTITLE6=Jack Teagarden (with Benny Goodman) - Texas Tea Party
TTITLE7=Frankie Newton - Onyx Hop
TTITLE8=Fats Waller - The Reefer Song (If You're A Viper)
TTITLE9=Leadbelly - Take A Whiff On Me
TTITLE10=Bessie Smith - Gimme A Pigfoot (Gimme A Reefer)
TTITLE11=Jerry Kruger (with Cootie Williams) - Ol' Man River (Smoke A 
TTITLE11=Little Tea)
TTITLE12=Ella Fitzgerald (with Chick Webb) - When I Get Low, I Get Hig
TTITLE12=h
TTITLE13=Julia Lee - Lotus Blossom (Sweet Marijuana)
TTITLE14=Cab Calloway - Minnie The Moocher
TTITLE15=Helen Ward (with Gene Krupa) - I'm Feeling High and Happy
TTITLE16=Stuff Smith - Here Comes The Man With The Jive
TTITLE17=Trixie Smith - Jack, I'm Mellow
EXTD=
EXTT0=
EXTT1=
EXTT2=
EXTT3=
EXTT4=
EXTT5=
EXTT6=
EXTT7=
EXTT8=
EXTT9=
EXTT10=
EXTT11=
EXTT12=
EXTT13=
EXTT14=
EXTT15=
EXTT16=
EXTT17=
PLAYORDER=
